<?xml version="1.0" encoding="utf-8"?>
<!-- Generator: Adobe Illustrator 24.1.0, SVG Export Plug-In . SVG Version: 6.00 Build 0)  -->
<svg version="1.1" id="Layer_1" xmlns="http://www.w3.org/2000/svg" xmlns:xlink="http://www.w3.org/1999/xlink" x="0px" y="0px"
	 viewBox="0 0 1000 1000" style="enable-background:new 0 0 1000 1000;" xml:space="preserve">
<style type="text/css">
	.st0{font-family: "Century Gothic", CenturyGothic, AppleGothic, sans-serif}
	.st1{font-size:36.8461px;}
	.st2{display:none;}
	.st3{display:inline;fill:#010101;}
</style>
<g>
	<path d="M286.44,453.27h25.43l-19.82,81.35h-25.04l-4.1-30.32l-7.41,30.32h-22.23l-18.64-81.35h24.31l6.85,29.98l6.91-29.98h19.99
		l6.85,29.98L286.44,453.27z"/>
	<path d="M373.63,453.27v22.57h-36.33v6.79h36.33v22.63h-36.33V512h36.33v22.63h-58.95v-81.35H373.63z"/>
	<path d="M468.8,453.27h25.43l-19.82,81.35h-25.04l-4.1-30.32l-7.41,30.32h-22.23l-18.64-81.35h24.31l6.85,29.98l6.91-29.98h19.99
		l6.85,29.98L468.8,453.27z"/>
	<path d="M556.55,453.27l31.1,81.35h-26l-3.09-8.03h-31.38l-3.03,8.03h-27.12l32.23-81.35H556.55z M550.6,505.38l-7.69-20.32
		l-7.69,20.32H550.6z"/>
	<path d="M616.63,475.84c0.19,0.22,8.96,9.38,26.33,27.46c2.36,3.48,3.54,7.15,3.54,11c0,5.46-1.89,10.22-5.67,14.26
		c-3.82,4.04-8.37,6.06-13.64,6.06h-41.77V512h35.32l-26.22-27.34c-2.4-2.92-3.59-6.61-3.59-11.06c0-5.5,1.87-10.25,5.61-14.26
		c3.78-4.04,8.33-6.06,13.64-6.06h39.69v22.57H616.63z"/>
	<path d="M696.13,453.27h22.57v81.35h-22.57v-29.36h-24.2v29.36h-22.63v-81.35h22.63v29.36h24.2V453.27z"/>
</g>
<text transform="matrix(1 0 0 0.9 243.6479 577.3604)" class="st0 st1">Hand Car Wash &amp; Services</text>
<g>
	<path d="M776.08,472.49c0-26.57,24.57-26.25,24.57-26.25s-24.57,0.42-24.57-26.25c0,26.57-24.57,26.25-24.57,26.25
		S775.98,445.92,776.08,472.49z"/>
	<path d="M737.28,455.24c0-36.2,33.4-35.8,33.4-35.8s-33.4,0.4-33.4-35.8c0,36.2-33.4,35.8-33.4,35.8S737.28,419.04,737.28,455.24z"
		/>
	<path d="M746.08,482.57c0-15.95,14.63-15.73,14.63-15.73s-14.63,0.22-14.63-15.73c0,15.95-14.63,15.73-14.63,15.73
		S746.08,466.73,746.08,482.57z"/>
</g>
<g class="st2">
	<path class="st3" d="M321.28,362.64c0-2.8-2.4-5.2-5.2-5.2c-2.8,0-5.2,2.4-5.2,5.2c-0.4,91.6-79.2,94.8-88,94.8l0,0l0,0
		c-1.2,0-2.4,0.4-3.2,1.2c-0.8,0.4-1.2,0.8-1.6,1.6c-0.8,1.6-0.8,3.6,0,5.2s2.8,2.8,4.4,2.8c0,0,0,0,0.4,0c9.2,0,87.6,3.2,87.6,94.8
		c0,2.8,2.4,5.2,5.2,5.2c2.8,0,5.2-2.4,5.2-5.2c0-91.6,78.8-94.8,87.6-94.8l0,0l0,0c2,0,3.6-1.2,4.8-2.8c0.8-1.6,0.8-3.6-0.4-5.2
		c-0.8-1.6-2.8-2.4-4.4-2.8l0,0l0,0l0,0l0,0C400.08,457.44,321.28,454.24,321.28,362.64z M315.68,523.84c-11.6-38-40-54.4-62.4-61.2
		c22.4-7.2,50.8-23.6,62.4-61.2c11.6,38,40,54.4,62.4,61.2C355.68,469.84,327.68,486.24,315.68,523.84z"/>
	<path class="st3" d="M219.68,434.24c0-50,42.8-52,48-52h0.4c2.8,0,5.2-2.4,5.2-5.2c0-2.8-2.4-5.2-5.2-5.2l0,0l0,0
		c-4.8,0-48-1.6-48-52c0-2.8-2.4-5.2-5.2-5.2c-2.8,0-5.2,2.4-5.2,5.2c0,50-42.8,52-48,52l0,0l0,0c-0.4,0-0.4,0-0.4,0
		c-2.8,0.4-4.8,2.4-4.8,5.2c0,2.8,2.4,5.2,5.2,5.2l0,0c4.8,0,48,1.6,48,52c0,2.8,2.4,5.2,5.2,5.2
		C217.28,439.44,219.68,437.04,219.68,434.24z M185.28,377.04c11.2-4.8,22.4-13.6,28.8-28.4c6.4,15.2,18,23.6,28.8,28.4
		c-11.2,4.8-22.4,13.6-28.8,28.4C207.68,389.84,196.08,381.44,185.28,377.04z"/>
	<path class="st3" d="M251.28,544.24c-0.4,0-0.8,0-1.2,0l0,0l0,0c-6.4,0-61.2-2.4-61.2-66c0-2.8-2.4-5.2-5.2-5.2
		c-2.8,0-5.2,2.4-5.2,5.2c0,64-54.8,66-61.2,66l0,0l0,0c-0.4,0-0.8,0-1.2,0c-2.4,0.4-4.4,2.8-4.4,5.2c0,2.8,2.4,5.2,5.2,5.2l0,0
		c6.4,0,61.2,2,61.2,66c0,2.8,2.4,5.2,5.2,5.2c2.8,0,5.2-2.4,5.2-5.2c0-64,54.8-66,61.2-66l0,0c2.8,0,5.2-2.4,5.2-5.2
		C255.28,546.64,253.68,544.64,251.28,544.24z M183.28,588.24c-8.4-22.4-25.2-33.6-39.6-38.8c14.8-5.6,31.2-16.4,39.6-38.8l0,0l0,0
		c8.4,22.4,25.2,33.6,39.6,38.8C208.48,554.64,191.68,565.84,183.28,588.24z"/>
</g>
</svg>
