<svg version="1.1" id="Layer_1" xmlns="http://www.w3.org/2000/svg" x="0" y="0" viewBox="0 0 1000 1000" xml:space="preserve">
  <style>
    .st0{fill:#fff}.st4{display:inline;fill:#010101}
  </style>
  <path class="st0" d="M286.44 453.27h25.43l-19.82 81.35h-25.04l-4.1-30.32-7.41 30.32h-22.23l-18.64-81.35h24.31l6.85 29.98 6.91-29.98h19.99l6.85 29.98 6.9-29.98zM373.63 453.27v22.57H337.3v6.79h36.33v22.63H337.3V512h36.33v22.63h-58.95v-81.35h58.95zM468.8 453.27h25.43l-19.82 81.35h-25.04l-4.1-30.32-7.41 30.32h-22.23l-18.64-81.35h24.31l6.85 29.98 6.91-29.98h19.99l6.85 29.98 6.9-29.98zM556.55 453.27l31.1 81.35h-26l-3.09-8.03h-31.38l-3.03 8.03h-27.12l32.23-81.35h27.29zm-5.95 52.11l-7.69-20.32-7.69 20.32h15.38z"/>
  <path class="st0" d="M616.63 475.84c.19.22 8.96 9.38 26.33 27.46 2.36 3.48 3.54 7.15 3.54 11 0 5.46-1.89 10.22-5.67 14.26-3.82 4.04-8.37 6.06-13.64 6.06h-41.77V512h35.32l-26.22-27.34c-2.4-2.92-3.59-6.61-3.59-11.06 0-5.5 1.87-10.25 5.61-14.26 3.78-4.04 8.33-6.06 13.64-6.06h39.69v22.57h-33.24z"/>
  <path class="st0" d="M696.13 453.27h22.57v81.35h-22.57v-29.36h-24.2v29.36H649.3v-81.35h22.63v29.36h24.2v-29.36z"/>
  <text transform="matrix(1 0 0 .9 243.6479 577.3604)" class="st0" font-size="36.8461" font-family="&quot;Century Gothic&quot;,CenturyGothic,AppleGothic,sans-serif">
    Hand Car Wash &amp; Services
  </text>
  <g>
    <path class="st0" d="M776.08 472.49c0-26.57 24.57-26.25 24.57-26.25s-24.57.42-24.57-26.25c0 26.57-24.57 26.25-24.57 26.25s24.47-.32 24.57 26.25zM737.28 455.24c0-36.2 33.4-35.8 33.4-35.8s-33.4.4-33.4-35.8c0 36.2-33.4 35.8-33.4 35.8s33.4-.4 33.4 35.8zM746.08 482.57c0-15.95 14.63-15.73 14.63-15.73s-14.63.22-14.63-15.73c0 15.95-14.63 15.73-14.63 15.73s14.63-.11 14.63 15.73z"/>
  </g>
</svg>